# xmcd
#
# Track frame offsets: 
#        150
#        14600
#        33255
#        62820
#
# Disc length: 1168 seconds
#
# Revision: 0
# Processed by: cddbd v1.5.1PL2 Copyright (c) Steve Scherf et al.
# Submitted via: ExactAudioCopy v0.95b3
#
DISCID=2d048e04
DTITLE=Toy-Box - The Sailor Song
DYEAR=1999
DGENRE=
TTITLE0=The Sailor Song (Radio Version)
TTITLE1=The Sailor Song (Extended Version)
TTITLE2=The Sailor Song (Bulletproof Remix)
TTITLE3=The Sailor Song (Elephant and Castle Remix)
EXTD=
EXTT0=
EXTT1=
EXTT2=
EXTT3=
PLAYORDER=
